<svg id="Layer_3" data-name="Layer 3" xmlns="http://www.w3.org/2000/svg" viewBox="0 0 1024 1024"><defs><style>.cls-1{fill:#fff;}</style></defs><title>Icon</title><path class="cls-1" d="M717.23,199.29,417.79,498.74a23.08,23.08,0,0,1-32.53,0h0a23.08,23.08,0,0,1,0-32.53L675.79,175.68A372.59,372.59,0,0,0,512,138c-206.55,0-374,167.45-374,374a376.27,376.27,0,0,0,6.06,67.41L296.78,426.7a23,23,0,0,1,32.52,0h0a23,23,0,0,1,0,32.52L157.38,631.14a373.61,373.61,0,0,0,70.68,124.28L541.21,442.26a23.08,23.08,0,0,1,32.53,0h0a23.08,23.08,0,0,1,0,32.53L260.09,788.44A372.66,372.66,0,0,0,512,886c206.55,0,374-167.45,374-374C886,381.24,818.89,266.15,717.23,199.29ZM367,389a23.06,23.06,0,0,1,0-32.53l45.25-45.25a23.06,23.06,0,0,1,32.53,0h0a23.06,23.06,0,0,1,0,32.53L399.52,389A23.06,23.06,0,0,1,367,389Z"/></svg>